<svg xmlns="http://www.w3.org/2000/svg" version="1.1" xmlns:xlink="http://www.w3.org/1999/xlink" width="1000" height="1000"><g clip-path="url(#SvgjsClipPath1126)"><rect width="1000" height="1000" fill="#ffffff"></rect><g transform="matrix(6.666666666666667,0,0,6.666666666666667,100,100)"><svg xmlns="http://www.w3.org/2000/svg" version="1.1" xmlns:xlink="http://www.w3.org/1999/xlink" width="120" height="120"><svg width="120" height="120" viewBox="0 0 120 120" fill="none" xmlns="http://www.w3.org/2000/svg">
<path d="M52.1168 14.901H70.9489V105H52.1168V14.901Z" fill="#003865"></path>
<path d="M81.8978 69.8614H86.7153V105H81.8978V69.8614Z" fill="#003865"></path>
<path d="M84.5256 78.8713H89.3431V105H84.5256V78.8713Z" fill="#003865"></path>
<path d="M62.6277 88.3317H89.3431V105H62.6277V88.3317Z" fill="#003865"></path>
<path d="M62.6277 86.0792H89.3431V84.7277H62.6277V86.0792Z" fill="#003865"></path>
<path d="M62.6277 82.4753H89.3431V81.1238H62.6277V82.4753Z" fill="#003865"></path>
<path d="M62.6277 79.3218H89.3431V77.9703H62.6277V79.3218Z" fill="#003865"></path>
<path d="M62.6277 75.2673H82.7737V73.9158H62.6277V75.2673Z" fill="#003865"></path>
<path d="M62.6277 72.1139H82.7737V70.7624H62.6277V72.1139Z" fill="#003865"></path>
<path d="M62.6277 68.9604H82.7737V67.6089H62.6277V68.9604Z" fill="#003865"></path>
<path d="M62.6277 65.3564H82.7737V64.005H62.6277V65.3564Z" fill="#003865"></path>
<path d="M62.6277 61.7525H82.7737V60.401H62.6277V61.7525Z" fill="#003865"></path>
<path d="M62.6277 58.1485H82.7737V56.797H62.6277V58.1485Z" fill="#003865"></path>
<path d="M32.8467 58.1485H52.9927V56.797H32.8467V58.1485Z" fill="#003865"></path>
<path d="M32.8467 64.9059H52.9927V64.005H32.8467V64.9059Z" fill="#003865"></path>
<path d="M10.9489 62.203H32.8467V61.302H10.9489V62.203Z" fill="#003865"></path>
<path d="M15.7664 49.5891H32.8467V48.6881H15.7664V49.5891Z" fill="#003865"></path>
<path d="M15.7664 44.6337H32.8467V43.7327H15.7664V44.6337Z" fill="#003865"></path>
<path d="M15.7664 40.1287H32.8467V39.2277H15.7664V40.1287Z" fill="#003865"></path>
<path d="M15.7664 34.7228H32.8467V33.8218H15.7664V34.7228Z" fill="#003865"></path>
<path d="M15.7664 30.6683H32.8467V29.7673H15.7664V30.6683Z" fill="#003865"></path>
<path d="M15.7664 25.2624H32.8467V24.3614H15.7664V25.2624Z" fill="#003865"></path>
<path d="M10.9489 69.4109H32.8467V68.5099H10.9489V69.4109Z" fill="#003865"></path>
<path d="M10.9489 76.6188H32.8467V75.7178H10.9489V76.6188Z" fill="#003865"></path>
<path d="M10.9489 83.8267H32.8467V82.9257H10.9489V83.8267Z" fill="#003865"></path>
<path d="M10.9489 91.0347H32.8467V90.1337H10.9489V91.0347Z" fill="#003865"></path>
<path d="M32.8467 94.6386H52.9927V93.7376H32.8467V94.6386Z" fill="#003865"></path>
<path d="M10.5109 55.4455H52.9927V54.0941H10.5109V55.4455Z" fill="#003865"></path>
<path d="M32.8467 86.5297H52.9927V85.1782H32.8467V86.5297Z" fill="#003865"></path>
<path d="M32.8467 78.8713H52.9927V71.6634H32.8467V78.8713Z" fill="#003865"></path>
<path d="M50.365 101.847H52.9927V56.797H50.365V101.847Z" fill="#003865"></path>
<path d="M4.37956 103.649H33.7226V96.4406H4.37956V103.649Z" fill="#003865"></path>
<path d="M4.37956 98.2426H10.5109V85.6287H4.37956V98.2426Z" fill="#003865"></path>
<path d="M4.37956 75.2673H10.5109V73.4653H4.37956V75.2673Z" fill="#003865"></path>
<path d="M6.13139 85.6287H10.5109V82.4753H6.13139V85.6287Z" fill="#003865"></path>
<path d="M4.37956 78.8713H7.44526V82.4753H4.37956V78.8713Z" fill="#003865"></path>
<path d="M4.37956 77.9703H10.5109V79.3218H4.37956V77.9703Z" fill="#003865"></path>
<path d="M8.75912 73.9158H10.5109V79.3218H8.75912V73.9158Z" fill="#003865"></path>
<path d="M4.37956 73.9158H6.13139V79.3218H4.37956V73.9158Z" fill="#003865"></path>
<path d="M32.8467 88.7822H52.9927V87.4307H32.8467V88.7822Z" fill="#003865"></path>
<path d="M0 105H52.9927V100.495H0V105Z" fill="#003865"></path>
<path d="M62.6277 54.5446H82.7737V53.1931H62.6277V54.5446Z" fill="#003865"></path>
<path d="M62.6277 50.9406H82.7737V49.5891H62.6277V50.9406Z" fill="#003865"></path>
<path d="M62.6277 47.7871H82.7737V46.4356H62.6277V47.7871Z" fill="#003865"></path>
<path d="M62.6277 44.1832H82.7737V42.8317H62.6277V44.1832Z" fill="#003865"></path>
<path d="M62.6277 40.5792H82.7737V39.2277H62.6277V40.5792Z" fill="#003865"></path>
<path d="M62.6277 36.9752H82.7737V35.6238H62.6277V36.9752Z" fill="#003865"></path>
<path d="M62.6277 33.8218H82.7737V32.4703H62.6277V33.8218Z" fill="#003865"></path>
<path d="M81.0219 90.5842H82.7737V28.8663H81.0219V90.5842Z" fill="#003865"></path>
<path d="M77.5182 90.5842H79.2701V28.8663H77.5182V90.5842Z" fill="#003865"></path>
<path d="M74.0146 90.5842H75.7664V28.8663H74.0146V90.5842Z" fill="#003865"></path>
<path d="M70.5109 90.5842H72.2628V28.8663H70.5109V90.5842Z" fill="#003865"></path>
<path d="M45.9854 86.0792H47.7372V57.698H45.9854V86.0792Z" fill="#003865"></path>
<path d="M41.1679 86.0792H42.9197V57.698H41.1679V86.0792Z" fill="#003865"></path>
<path d="M36.3504 86.0792H38.1022V57.698H36.3504V86.0792Z" fill="#003865"></path>
<path d="M32.8467 101.847H33.7226V54.0941H32.8467V101.847Z" fill="#003865"></path>
<path d="M30.219 101.847H31.0949V54.0941H30.219V101.847Z" fill="#003865"></path>
<path d="M27.5912 101.847H28.4672V54.0941H27.5912V101.847Z" fill="#003865"></path>
<path d="M26.2774 101.847H27.1533V54.0941H26.2774V101.847Z" fill="#003865"></path>
<path d="M23.6496 101.847H24.5255V54.0941H23.6496V101.847Z" fill="#003865"></path>
<path d="M22.3358 101.847H23.2117V54.0941H22.3358V101.847Z" fill="#003865"></path>
<path d="M19.2701 101.847H20.146V54.0941H19.2701V101.847Z" fill="#003865"></path>
<path d="M17.9562 101.847H18.8321V54.0941H17.9562V101.847Z" fill="#003865"></path>
<path d="M18.8321 54.5446H19.708V24.3614H18.8321V54.5446Z" fill="#003865"></path>
<path d="M22.3358 54.5446H23.2117V24.3614H22.3358V54.5446Z" fill="#003865"></path>
<path d="M25.8394 54.5446H26.7153V24.3614H25.8394V54.5446Z" fill="#003865"></path>
<path d="M29.3431 54.5446H30.219V24.3614H29.3431V54.5446Z" fill="#003865"></path>
<path d="M32.8467 54.5446H33.7226V24.3614H32.8467V54.5446Z" fill="#003865"></path>
<path d="M15.3285 54.5446H16.2044V24.3614H15.3285V54.5446Z" fill="#003865"></path>
<path d="M14.8905 101.847H15.7664V54.0941H14.8905V101.847Z" fill="#003865"></path>
<path d="M13.5766 101.847H14.4526V54.0941H13.5766V101.847Z" fill="#003865"></path>
<path d="M10.5109 101.847H11.3869V54.0941H10.5109V101.847Z" fill="#003865"></path>
<path d="M36.3504 101.847H38.1022V87.4307H36.3504V101.847Z" fill="#003865"></path>
<path d="M41.1679 101.847H42.9197V87.4307H41.1679V101.847Z" fill="#003865"></path>
<path d="M45.9854 101.847H47.7372V87.4307H45.9854V101.847Z" fill="#003865"></path>
<path d="M62.6277 30.2178H82.7737V28.8663H62.6277V30.2178Z" fill="#003865"></path>
<path d="M84.5256 69.8614H108.175V71.2129H84.5256V69.8614Z" fill="#003865"></path>
<path d="M86.7153 65.3564H108.175V71.2129H86.7153V65.3564Z" fill="#003865"></path>
<path d="M88.9051 73.0149H108.175V78.8713H88.9051V73.0149Z" fill="#003865"></path>
<path d="M84.5256 73.9158H108.175V75.2673H84.5256V73.9158Z" fill="#003865"></path>
<path d="M88.9051 80.6733H108.175V86.5297H88.9051V80.6733Z" fill="#003865"></path>
<path d="M88.9051 88.3317H108.175V94.1881H88.9051V88.3317Z" fill="#003865"></path>
<path d="M86.7153 57.698H108.175V63.5545H86.7153V57.698Z" fill="#003865"></path>
<path d="M86.7153 50.4901H108.175V56.3465H86.7153V50.4901Z" fill="#003865"></path>
<path d="M86.7153 42.8317H108.175V48.6881H86.7153V42.8317Z" fill="#003865"></path>
<path d="M86.7153 35.6238H108.175V41.4802H86.7153V35.6238Z" fill="#003865"></path>
<path d="M86.7153 27.9653H108.175V33.8218H86.7153V27.9653Z" fill="#003865"></path>
<path d="M86.7153 20.7574H108.175V26.6139H86.7153V20.7574Z" fill="#003865"></path>
<path d="M86.7153 14H108.175V19.8564H86.7153V14Z" fill="#003865"></path>
<path d="M88.0292 14H88.9051V98.2426H88.0292V14Z" fill="#003865"></path>
<path d="M90.6569 14H91.5329V98.2426H90.6569V14Z" fill="#003865"></path>
<path d="M93.2847 14H94.1606V98.2426H93.2847V14Z" fill="#003865"></path>
<path d="M95.9124 14H96.7883V98.2426H95.9124V14Z" fill="#003865"></path>
<path d="M98.5401 14H99.4161V98.2426H98.5401V14Z" fill="#003865"></path>
<path d="M101.168 14H102.044V98.2426H101.168V14Z" fill="#003865"></path>
<path d="M103.796 14H104.672V98.2426H103.796V14Z" fill="#003865"></path>
<path d="M106.423 14H107.299V98.2426H106.423V14Z" fill="#003865"></path>
<path d="M88.4672 70.7624H89.3431V105H88.4672V70.7624Z" fill="#003865"></path>
<path d="M106.423 77.9703H112.555V105H106.423V77.9703Z" fill="#003865"></path>
<path d="M106.423 83.3762H116.496V105H106.423V83.3762Z" fill="#003865"></path>
<path d="M109.927 101.847H120V105H109.927V101.847Z" fill="#003865"></path>
<path d="M69.635 96.4406H110.803V105H69.635V96.4406Z" fill="#003865"></path>
<path d="M106.423 77.9703H116.496V79.3218H106.423V77.9703Z" fill="#003865"></path>
<path d="M115.182 77.9703H116.496V105H115.182V77.9703Z" fill="#003865"></path>
</svg></svg></g></g><defs><clipPath id="SvgjsClipPath1126"><rect width="1000" height="1000" x="0" y="0" rx="250" ry="250"></rect></clipPath></defs></svg>