<svg width="50" height="50" viewBox="0 0 50 50" fill="none" xmlns="http://www.w3.org/2000/svg">
<g filter="url(#filter0_i_135_753)">
<path d="M0 25C0 11.1929 11.1929 0 25 0C38.8071 0 50 11.1929 50 25C50 38.8071 38.8071 50 25 50C11.1929 50 0 38.8071 0 25Z" fill="url(#paint0_linear_135_753)"/>
<path d="M0 25C0 11.1929 11.1929 0 25 0C38.8071 0 50 11.1929 50 25C50 38.8071 38.8071 50 25 50C11.1929 50 0 38.8071 0 25Z" fill="url(#paint1_linear_135_753)"/>
</g>
<path fill-rule="evenodd" clip-rule="evenodd" d="M16.2232 15.189C16.6781 14.978 17.1862 15.0007 17.5619 15.0007H20.3791C20.6951 15.0007 21.115 14.9852 21.498 15.1267L21.5162 15.1336L21.5448 15.1448C21.8389 15.263 22.1009 15.4494 22.309 15.6889L22.3217 15.7036C22.5521 15.9757 22.6796 16.3151 22.7801 16.5944L22.8225 16.7121L23.9886 19.9188V19.9189L24.0447 20.0735C24.1 20.2272 24.1521 20.377 24.1903 20.5124C24.2445 20.7052 24.2909 20.935 24.2739 21.197C24.2498 21.5666 24.1235 21.922 23.9097 22.2237L23.9098 22.2237C23.7579 22.438 23.5772 22.5872 23.4135 22.7028C23.2985 22.784 23.1637 22.8676 23.0238 22.952L22.31 23.3804C23.3132 25.186 24.8143 26.6883 26.6193 27.6904L26.9633 27.1172C27.0765 26.9285 27.1889 26.7399 27.2971 26.5865C27.4127 26.4229 27.5619 26.2421 27.7763 26.0902L27.8047 26.0704C28.1002 25.8686 28.4448 25.7494 28.803 25.7261L28.8275 25.7247C29.0793 25.712 29.3008 25.7572 29.4875 25.8097C29.623 25.8479 29.7728 25.8999 29.9265 25.9553L30.0811 26.0114L30.0812 26.0114L33.2879 27.1775L33.288 27.1775L33.4056 27.2199C33.69 27.3222 34.0368 27.4526 34.3112 27.6911C34.5579 27.9055 34.7487 28.1774 34.8662 28.4834L34.8731 28.5017C35.0149 28.8848 34.9993 29.305 34.9993 29.6209V32.4381C34.9993 32.8196 35.0227 33.338 34.8007 33.7983L34.8008 33.7983C34.6313 34.1498 34.3358 34.4681 33.9972 34.663L33.9971 34.663C33.6124 34.8844 33.193 34.9225 32.8586 34.9458L32.7208 34.9554C32.3172 34.985 31.91 35 31.4994 35C22.387 35 15 27.6129 15 18.5006C15 18.09 15.015 17.6827 15.0446 17.2793L15.0541 17.1415C15.0775 16.807 15.1156 16.3875 15.337 16.0028L15.3371 16.0027L15.3557 15.9711C15.5518 15.646 15.8609 15.3635 16.2016 15.1992L16.2016 15.1992L16.2232 15.189ZM17.5619 17.0006C17.3052 17.0006 17.1745 17.0015 17.0809 17.0094C17.0796 17.0096 17.0784 17.0097 17.0772 17.0098C17.0721 17.0419 17.0665 17.0871 17.0603 17.1549C17.0569 17.1918 17.0537 17.2316 17.0503 17.276L17.0391 17.4254C17.0132 17.7802 16.9999 18.1388 16.9999 18.5006C16.9999 26.5084 23.4916 33.0001 31.4994 33.0001C31.8613 33.0001 32.2197 32.9869 32.5746 32.9609L32.7239 32.9497C32.7684 32.9463 32.8082 32.943 32.845 32.9397C32.9128 32.9334 32.9581 32.9278 32.9902 32.9228C32.9903 32.9216 32.9904 32.9203 32.9906 32.9191C32.9985 32.8255 32.9994 32.6948 32.9994 32.4381V29.6209C32.9994 29.4057 32.9988 29.2936 32.9933 29.2127C32.9932 29.2101 32.9929 29.2076 32.9928 29.2053C32.9906 29.2043 32.9884 29.2032 32.986 29.2022C32.9117 29.1693 32.8065 29.1305 32.6043 29.057L29.3977 27.891C29.1631 27.8057 29.0381 27.7609 28.9457 27.7349L28.9364 27.7324C28.9347 27.7348 28.9328 27.7373 28.9309 27.74C28.8756 27.8184 28.8067 27.9319 28.6782 28.1461L28.6782 28.1462L27.857 29.5147C27.5998 29.9433 27.0666 30.1152 26.6088 29.9207L26.587 29.9111C23.7381 28.6209 21.4273 26.3189 20.1199 23.4808L20.0892 23.4136C19.8792 22.9509 20.0496 22.4044 20.4853 22.143L21.8539 21.3218L21.9966 21.2359C22.1225 21.1598 22.2011 21.1107 22.2599 21.0691C22.2626 21.0672 22.2651 21.0653 22.2676 21.0635C22.2668 21.0606 22.266 21.0575 22.2651 21.0544C22.2391 20.9619 22.1943 20.8369 22.109 20.6022L20.943 17.3956L20.8939 17.2611C20.8504 17.1428 20.8224 17.0697 20.7978 17.014C20.7967 17.0116 20.7957 17.0094 20.7947 17.0072C20.7924 17.007 20.7899 17.0068 20.7874 17.0067C20.7266 17.0025 20.6484 17.0012 20.5223 17.0008L20.3791 17.0006H17.5619Z" fill="white"/>
<defs>
<filter id="filter0_i_135_753" x="0" y="0" width="50" height="50" filterUnits="userSpaceOnUse" color-interpolation-filters="sRGB">
<feFlood flood-opacity="0" result="BackgroundImageFix"/>
<feBlend mode="normal" in="SourceGraphic" in2="BackgroundImageFix" result="shape"/>
<feColorMatrix in="SourceAlpha" type="matrix" values="0 0 0 0 0 0 0 0 0 0 0 0 0 0 0 0 0 0 127 0" result="hardAlpha"/>
<feOffset dy="-1"/>
<feComposite in2="hardAlpha" operator="arithmetic" k2="-1" k3="1"/>
<feColorMatrix type="matrix" values="0 0 0 0 1 0 0 0 0 1 0 0 0 0 1 0 0 0 0.15 0"/>
<feBlend mode="normal" in2="shape" result="effect1_innerShadow_135_753"/>
</filter>
<linearGradient id="paint0_linear_135_753" x1="25" y1="0" x2="25" y2="50" gradientUnits="userSpaceOnUse">
<stop stop-color="#5CAC16"/>
<stop offset="1" stop-color="#499407"/>
</linearGradient>
<linearGradient id="paint1_linear_135_753" x1="25" y1="0" x2="25" y2="50" gradientUnits="userSpaceOnUse">
<stop stop-color="#FF4548"/>
<stop offset="1" stop-color="#D21013"/>
</linearGradient>
</defs>
</svg>
