<svg width="50" height="50" viewBox="0 0 50 50" fill="none" xmlns="http://www.w3.org/2000/svg">
<g filter="url(#filter0_i_135_766)">
<path d="M0 25C0 11.1929 11.1929 0 25 0C38.8071 0 50 11.1929 50 25C50 38.8071 38.8071 50 25 50C11.1929 50 0 38.8071 0 25Z" fill="url(#paint0_linear_135_766)"/>
<path d="M0 25C0 11.1929 11.1929 0 25 0C38.8071 0 50 11.1929 50 25C50 38.8071 38.8071 50 25 50C11.1929 50 0 38.8071 0 25Z" fill="url(#paint1_linear_135_766)"/>
</g>
<path fill-rule="evenodd" clip-rule="evenodd" d="M31.6002 17C32.105 17.0003 32.5452 17.0033 32.9145 17.0325C33.3493 17.0668 33.7819 17.1426 34.1981 17.3474L34.2271 17.3619C34.8347 17.6682 35.3288 18.15 35.6402 18.7405C35.8523 19.1425 35.9307 19.5603 35.9662 19.9803C35.996 20.3319 35.9994 20.75 35.9998 21.2288C36 21.2423 36.0001 21.2558 35.9998 21.2692C35.9999 21.3326 35.9999 21.397 35.9999 21.4625V29.5375C35.9999 30.115 36.0007 30.6121 35.9662 31.0197C35.9307 31.4397 35.8522 31.8575 35.6402 32.2595L35.6402 32.2595C35.3239 32.8593 34.819 33.347 34.1981 33.6525L34.1981 33.6525C33.7819 33.8574 33.3493 33.9332 32.9145 33.9675C32.4924 34.0008 31.9778 34 31.3799 34H18.6201C18.0222 34 17.5076 34.0008 17.0855 33.9675C16.6507 33.9332 16.2181 33.8574 15.8019 33.6525C15.1906 33.3517 14.6919 32.8745 14.3748 32.2876L14.3598 32.2596C14.1477 31.8576 14.0693 31.4398 14.0337 31.0197C13.9993 30.6121 14.0001 30.115 14.0001 29.5375V21.4625C14.0001 21.397 14.0001 21.3326 14.0002 21.2692C13.9999 21.2558 14 21.2423 14.0002 21.2288C14.0006 20.75 14.004 20.3319 14.0337 19.9803C14.0682 19.5734 14.1429 19.1685 14.3403 18.7782L14.3598 18.7404C14.6762 18.1406 15.181 17.653 15.802 17.3474C16.2182 17.1426 16.6507 17.0668 17.0856 17.0325C17.4549 17.0033 17.895 17.0003 18.3998 17H31.6002ZM31.5173 24.2806C29.3959 25.419 28.1334 26.1098 26.7728 26.3801H26.7727C25.6214 26.6087 24.4345 26.6123 23.2821 26.3908L23.2273 26.3801H23.2272C21.9517 26.1267 20.7624 25.5037 18.8707 24.4888L16.2001 23.0557V29.5375C16.2001 30.1501 16.201 30.5456 16.2264 30.8467C16.2508 31.1353 16.2923 31.2424 16.32 31.2949L16.32 31.2949L16.3301 31.3135C16.4326 31.4987 16.5897 31.6505 16.7813 31.7494L16.8006 31.7591L16.8007 31.7592L16.8116 31.7644C16.8697 31.7909 16.9846 31.8275 17.2647 31.8496C17.5764 31.8742 17.9859 31.875 18.6201 31.875H31.3799C32.0141 31.875 32.4236 31.8742 32.7353 31.8496C33.0341 31.826 33.1449 31.7859 33.1993 31.7592L33.1994 31.7591L33.2187 31.7494C33.4167 31.6471 33.5779 31.4885 33.68 31.2949L33.68 31.2948L33.6853 31.2843C33.7128 31.2283 33.7507 31.1173 33.7736 30.8467C33.799 30.5456 33.7999 30.1501 33.7999 29.5375L33.7999 23.0557L31.5173 24.2806ZM18.6201 19.125C17.9859 19.125 17.5764 19.1258 17.2647 19.1504C16.9659 19.174 16.8551 19.214 16.8007 19.2408C16.5938 19.3427 16.4255 19.5052 16.32 19.7051C16.2923 19.7576 16.2508 19.8647 16.2264 20.1533C16.215 20.2886 16.2085 20.4429 16.2049 20.6273L19.5512 22.423C21.7971 23.6283 22.7184 24.1095 23.6703 24.2986L23.7109 24.3065C24.5617 24.4701 25.4377 24.4702 26.2885 24.3067L26.3297 24.2986C27.2816 24.1095 28.2029 23.6283 30.4488 22.423L33.7951 20.6273C33.7914 20.4429 33.785 20.2886 33.7736 20.1533C33.7492 19.8647 33.7077 19.7577 33.68 19.7051L33.6799 19.705C33.5746 19.5052 33.4063 19.3427 33.1993 19.2408L33.1993 19.2408C33.1449 19.214 33.0341 19.174 32.7353 19.1504C32.4626 19.1289 32.115 19.1255 31.6075 19.125L18.6201 19.125Z" fill="white"/>
<defs>
<filter id="filter0_i_135_766" x="0" y="0" width="50" height="50" filterUnits="userSpaceOnUse" color-interpolation-filters="sRGB">
<feFlood flood-opacity="0" result="BackgroundImageFix"/>
<feBlend mode="normal" in="SourceGraphic" in2="BackgroundImageFix" result="shape"/>
<feColorMatrix in="SourceAlpha" type="matrix" values="0 0 0 0 0 0 0 0 0 0 0 0 0 0 0 0 0 0 127 0" result="hardAlpha"/>
<feOffset dy="-1"/>
<feComposite in2="hardAlpha" operator="arithmetic" k2="-1" k3="1"/>
<feColorMatrix type="matrix" values="0 0 0 0 1 0 0 0 0 1 0 0 0 0 1 0 0 0 0.15 0"/>
<feBlend mode="normal" in2="shape" result="effect1_innerShadow_135_766"/>
</filter>
<linearGradient id="paint0_linear_135_766" x1="25" y1="0" x2="25" y2="50" gradientUnits="userSpaceOnUse">
<stop stop-color="#5CAC16"/>
<stop offset="1" stop-color="#499407"/>
</linearGradient>
<linearGradient id="paint1_linear_135_766" x1="25" y1="0" x2="25" y2="50" gradientUnits="userSpaceOnUse">
<stop stop-color="#FF4548"/>
<stop offset="1" stop-color="#D21013"/>
</linearGradient>
</defs>
</svg>
