<svg width="20" height="20" viewBox="0 0 20 20" fill="none" xmlns="http://www.w3.org/2000/svg">
<rect x="1" y="1" width="18" height="18" rx="9" stroke="#E5140B" stroke-width="2"/>
<path d="M11.32 7.476C11.32 8.36133 11.288 9.172 11.224 9.908C11.16 10.644 11.08 11.3853 10.984 12.132H9.608C9.50133 11.3853 9.416 10.644 9.352 9.908C9.288 9.16133 9.256 8.35067 9.256 7.476V4.5H11.32V7.476ZM11.56 14.532C11.56 14.9053 11.4373 15.2093 11.192 15.444C10.9467 15.6787 10.6427 15.796 10.28 15.796C9.928 15.796 9.624 15.6787 9.368 15.444C9.12267 15.2093 9 14.9053 9 14.532C9 14.1587 9.12267 13.8547 9.368 13.62C9.624 13.3747 9.928 13.252 10.28 13.252C10.6427 13.252 10.9467 13.3747 11.192 13.62C11.4373 13.8547 11.56 14.1587 11.56 14.532Z" fill="#E5140B"/>
</svg>
