<svg width="250" height="70" viewBox="0 0 250 70" fill="none" xmlns="http://www.w3.org/2000/svg">
<path fill-rule="evenodd" clip-rule="evenodd" d="M29.7835 54.4444L77.2957 58.0901V70H0V56.875L29.7835 54.4444ZM32.2636 67.5271H74.8156V60.3798L32.2636 57.1149V67.5271Z" fill="white"/>
<path fill-rule="evenodd" clip-rule="evenodd" d="M163.202 41.2804C164.607 41.2804 165.889 41.503 167.046 41.9481C168.22 42.3932 169.237 43.028 170.097 43.8522C170.956 44.66 171.626 45.6078 172.105 46.6958C172.601 47.7838 172.85 48.9791 172.85 50.2815C172.85 51.5839 172.601 52.7873 172.105 53.8918C171.626 54.9798 170.956 55.9279 170.097 56.7357C169.237 57.5435 168.22 58.1698 167.046 58.6149C165.889 59.0601 164.607 59.2827 163.202 59.2827C161.813 59.2826 160.532 59.06 159.358 58.6149C158.184 58.1698 157.159 57.5435 156.283 56.7357C155.423 55.9115 154.753 54.9553 154.274 53.8672C153.794 52.7792 153.554 51.5839 153.554 50.2815C153.554 48.9791 153.794 47.7838 154.274 46.6958C154.753 45.6078 155.423 44.66 156.283 43.8522C157.159 43.028 158.184 42.3932 159.358 41.9481C160.532 41.503 161.813 41.2804 163.202 41.2804ZM163.202 45.3358C162.54 45.3358 161.92 45.4511 161.342 45.6819C160.78 45.9127 160.284 46.2507 159.854 46.6958C159.441 47.1244 159.11 47.6438 158.862 48.2538C158.63 48.8473 158.515 49.5232 158.515 50.2815C158.515 51.0233 158.63 51.6993 158.862 52.3092C159.11 52.9192 159.441 53.4467 159.854 53.8918C160.284 54.3204 160.78 54.6503 161.342 54.8811C161.92 55.1119 162.54 55.2272 163.202 55.2272C163.863 55.2272 164.475 55.1119 165.037 54.8811C165.616 54.6503 166.112 54.3204 166.525 53.8918C166.955 53.4467 167.286 52.9192 167.517 52.3092C167.765 51.6993 167.889 51.0234 167.889 50.2815C167.889 49.5232 167.765 48.8473 167.517 48.2538C167.286 47.6438 166.955 47.1244 166.525 46.6958C166.112 46.2507 165.616 45.9127 165.037 45.6819C164.475 45.4511 163.863 45.3358 163.202 45.3358Z" fill="white"/>
<path fill-rule="evenodd" clip-rule="evenodd" d="M118.051 41.6265V45.4098H108.379V48.2043H112.868L113.259 48.2095C115.184 48.2617 116.666 48.7052 117.704 49.5397C118.829 50.4299 119.391 51.7157 119.391 53.3971C119.391 55.1281 118.763 56.4884 117.506 57.4775C116.25 58.4502 114.489 58.9365 112.223 58.9365H103.543V41.6265H118.051ZM108.379 55.4253H111.901C112.711 55.4253 113.331 55.2603 113.761 54.9306C114.207 54.6009 114.431 54.131 114.431 53.5211C114.431 52.3393 113.639 51.73 112.057 51.693L111.901 51.691H108.379V55.4253Z" fill="white"/>
<path d="M135.542 45.4098H126.787V48.3279H134.5V51.9876H126.787V55.1532H135.864V58.9365H121.926V41.6265H135.542V45.4098Z" fill="white"/>
<path d="M152.649 41.6265V45.5089H147.342V58.9365H142.505V45.5089H137.174V41.6265H152.649Z" fill="white"/>
<path d="M180.386 48.1302H187.082V41.6265H191.992V58.9365H187.082V52.1857H180.386V58.9365H175.475V41.6265H180.386V48.1302Z" fill="white"/>
<path d="M200.633 41.6265V48.1302H207.329V41.6265H212.24V58.9365H207.329V52.1857H200.633V58.9365H195.723V41.6265H200.633Z" fill="white"/>
<path fill-rule="evenodd" clip-rule="evenodd" d="M234.422 58.9365H229.313L227.959 55.5734H220.598L219.244 58.9365H214.234L221.897 41.6265H226.734L234.422 58.9365ZM222.051 51.9631H226.506L224.278 46.4285L222.051 51.9631Z" fill="white"/>
<path fill-rule="evenodd" clip-rule="evenodd" d="M250 58.9365H245.164V54.5845H242.497L239.633 58.9365H234.475L238.001 53.8523C237.975 53.8407 237.948 53.8296 237.922 53.8177C236.798 53.3067 235.929 52.5731 235.318 51.617C234.723 50.6608 234.425 49.5232 234.425 48.2043C234.425 46.8361 234.739 45.6656 235.367 44.693C236.012 43.7039 236.913 42.9453 238.071 42.4178C239.245 41.8902 240.617 41.6265 242.188 41.6265H250V58.9365ZM242.287 45.4843C241.328 45.4843 240.6 45.7069 240.104 46.152C239.625 46.5807 239.385 47.2401 239.385 48.1302C239.385 49.0038 239.625 49.6714 240.104 50.133C240.6 50.5781 241.311 50.8007 242.237 50.8007H245.164V45.4843H242.287Z" fill="white"/>
<path fill-rule="evenodd" clip-rule="evenodd" d="M45.3845 28.2829L77.2957 39.9497V51.6161L45.3845 44.9498V44.9607L0 50.2022V38.766L45.3845 28.2829ZM47.8646 42.941L74.8156 48.5714V41.6764L47.8646 31.8232V42.941Z" fill="white"/>
<path fill-rule="evenodd" clip-rule="evenodd" d="M77.2957 22.6908V34.6466L55.3125 18.4511V18.4825L0 31.8184V20.5883L55.3125 0L77.2957 22.6908ZM57.7925 17.2034L74.8156 29.7444V23.6902L57.7925 6.11896V17.2034Z" fill="white"/>
<path d="M166.385 11.54V24.9677H173.056V11.54H177.893V24.9677H180.273V32.3863H175.785V28.85H161.549V11.54H166.385Z" fill="white"/>
<path d="M107.015 11.54L111.054 19.8871L115.249 11.54H120.036L112.843 24.9182C112.132 26.237 111.281 27.2593 110.289 27.9847C109.314 28.7101 108.239 29.1222 107.065 29.2211C105.891 29.32 104.659 29.1055 103.37 28.578L104.535 24.9677C105.511 25.2479 106.304 25.3387 106.916 25.2398C107.542 25.1249 108.093 24.7156 108.571 24.0126L101.832 11.54H107.015Z" fill="white"/>
<path d="M137.491 28.85H132.655V15.4224H127.659L127.57 18.2414C127.521 19.9229 127.405 21.4396 127.223 22.7915C127.041 24.1267 126.752 25.2725 126.355 26.2287C125.959 27.1684 125.405 27.8938 124.694 28.4049C123.999 28.8994 123.107 29.1467 122.015 29.1467C121.685 29.1467 121.329 29.1221 120.949 29.0726C120.585 29.0232 120.196 28.949 119.783 28.85L120.056 24.8441C120.287 24.8936 120.511 24.9182 120.726 24.9182C121.404 24.9182 121.916 24.6544 122.263 24.1269C122.61 23.5829 122.85 22.8243 122.983 21.8517C123.131 20.8791 123.222 19.7416 123.255 18.4394L123.503 11.54H137.491V28.85Z" fill="white"/>
<path d="M146.041 21.7035L153.208 11.54H157.821V28.85H152.985V18.7115L145.842 28.85H141.204V11.54H146.041V21.7035Z" fill="white"/>
<path fill-rule="evenodd" clip-rule="evenodd" d="M201.217 28.85H196.108L194.754 25.4869H187.393L186.039 28.85H181.029L188.692 11.54H193.529L201.217 28.85ZM188.846 21.8766H193.301L191.073 16.3421L188.846 21.8766Z" fill="white"/>
</svg>
