<svg width="286" height="44" viewBox="0 0 286 44" fill="none" xmlns="http://www.w3.org/2000/svg">
<path d="M25.1898 0.435644H34.292V44H25.1898V0.435644Z" fill="#003865"/>
<path d="M39.5839 27.0099H41.9124V44H39.5839V27.0099Z" fill="#003865"/>
<path d="M40.854 31.3663H43.1825V44H40.854V31.3663Z" fill="#003865"/>
<path d="M30.2701 35.9406H43.1825V44H30.2701V35.9406Z" fill="#003865"/>
<path d="M30.2701 34.8515H43.1825V34.198H30.2701V34.8515Z" fill="#003865"/>
<path d="M30.2701 33.1089H43.1825V32.4554H30.2701V33.1089Z" fill="#003865"/>
<path d="M30.2701 31.5842H43.1825V30.9307H30.2701V31.5842Z" fill="#003865"/>
<path d="M30.2701 29.6238H40.0073V28.9703H30.2701V29.6238Z" fill="#003865"/>
<path d="M30.2701 28.099H40.0073V27.4455H30.2701V28.099Z" fill="#003865"/>
<path d="M30.2701 26.5743H40.0073V25.9208H30.2701V26.5743Z" fill="#003865"/>
<path d="M30.2701 24.8317H40.0073V24.1782H30.2701V24.8317Z" fill="#003865"/>
<path d="M30.2701 23.0891H40.0073V22.4356H30.2701V23.0891Z" fill="#003865"/>
<path d="M30.2701 21.3465H40.0073V20.6931H30.2701V21.3465Z" fill="#003865"/>
<path d="M15.8759 21.3465H25.6131V20.6931H15.8759V21.3465Z" fill="#003865"/>
<path d="M15.8759 24.6139H25.6131V24.1782H15.8759V24.6139Z" fill="#003865"/>
<path d="M5.29197 23.3069H15.8759V22.8713H5.29197V23.3069Z" fill="#003865"/>
<path d="M7.62044 17.2079H15.8759V16.7723H7.62044V17.2079Z" fill="#003865"/>
<path d="M7.62044 14.8119H15.8759V14.3762H7.62044V14.8119Z" fill="#003865"/>
<path d="M7.62044 12.6337H15.8759V12.198H7.62044V12.6337Z" fill="#003865"/>
<path d="M7.62044 10.0198H15.8759V9.58416H7.62044V10.0198Z" fill="#003865"/>
<path d="M7.62044 8.05941H15.8759V7.62376H7.62044V8.05941Z" fill="#003865"/>
<path d="M7.62044 5.44554H15.8759V5.0099H7.62044V5.44554Z" fill="#003865"/>
<path d="M5.29197 26.7921H15.8759V26.3564H5.29197V26.7921Z" fill="#003865"/>
<path d="M5.29197 30.2772H15.8759V29.8416H5.29197V30.2772Z" fill="#003865"/>
<path d="M5.29197 33.7624H15.8759V33.3267H5.29197V33.7624Z" fill="#003865"/>
<path d="M5.29197 37.2475H15.8759V36.8119H5.29197V37.2475Z" fill="#003865"/>
<path d="M15.8759 38.9901H25.6131V38.5545H15.8759V38.9901Z" fill="#003865"/>
<path d="M5.08029 20.0396H25.6131V19.3861H5.08029V20.0396Z" fill="#003865"/>
<path d="M15.8759 35.0693H25.6131V34.4158H15.8759V35.0693Z" fill="#003865"/>
<path d="M15.8759 31.3663H25.6131V27.8812H15.8759V31.3663Z" fill="#003865"/>
<path d="M24.3431 42.4752H25.6131V20.6931H24.3431V42.4752Z" fill="#003865"/>
<path d="M2.11679 43.3465H16.2993V39.8614H2.11679V43.3465Z" fill="#003865"/>
<path d="M2.11679 40.7327H5.08029V34.6337H2.11679V40.7327Z" fill="#003865"/>
<path d="M2.11679 29.6238H5.08029V28.7525H2.11679V29.6238Z" fill="#003865"/>
<path d="M2.9635 34.6337H5.08029V33.1089H2.9635V34.6337Z" fill="#003865"/>
<path d="M2.11679 31.3663H3.59854V33.1089H2.11679V31.3663Z" fill="#003865"/>
<path d="M2.11679 30.9307H5.08029V31.5842H2.11679V30.9307Z" fill="#003865"/>
<path d="M4.23358 28.9703H5.08029V31.5842H4.23358V28.9703Z" fill="#003865"/>
<path d="M2.11679 28.9703H2.9635V31.5842H2.11679V28.9703Z" fill="#003865"/>
<path d="M15.8759 36.1584H25.6131V35.505H15.8759V36.1584Z" fill="#003865"/>
<path d="M0 44H25.6131V41.8218H0V44Z" fill="#003865"/>
<path d="M30.2701 19.604H40.0073V18.9505H30.2701V19.604Z" fill="#003865"/>
<path d="M30.2701 17.8614H40.0073V17.2079H30.2701V17.8614Z" fill="#003865"/>
<path d="M30.2701 16.3366H40.0073V15.6832H30.2701V16.3366Z" fill="#003865"/>
<path d="M30.2701 14.5941H40.0073V13.9406H30.2701V14.5941Z" fill="#003865"/>
<path d="M30.2701 12.8515H40.0073V12.198H30.2701V12.8515Z" fill="#003865"/>
<path d="M30.2701 11.1089H40.0073V10.4554H30.2701V11.1089Z" fill="#003865"/>
<path d="M30.2701 9.58416H40.0073V8.93069H30.2701V9.58416Z" fill="#003865"/>
<path d="M39.1606 37.0297H40.0073V7.18812H39.1606V37.0297Z" fill="#003865"/>
<path d="M37.4672 37.0297H38.3139V7.18812H37.4672V37.0297Z" fill="#003865"/>
<path d="M35.7737 37.0297H36.6204V7.18812H35.7737V37.0297Z" fill="#003865"/>
<path d="M34.0803 37.0297H34.927V7.18812H34.0803V37.0297Z" fill="#003865"/>
<path d="M22.2263 34.8515H23.073V21.1287H22.2263V34.8515Z" fill="#003865"/>
<path d="M19.8978 34.8515H20.7445V21.1287H19.8978V34.8515Z" fill="#003865"/>
<path d="M17.5693 34.8515H18.4161V21.1287H17.5693V34.8515Z" fill="#003865"/>
<path d="M15.8759 42.4752H16.2993V19.3861H15.8759V42.4752Z" fill="#003865"/>
<path d="M14.6058 42.4752H15.0292V19.3861H14.6058V42.4752Z" fill="#003865"/>
<path d="M13.3358 42.4752H13.7591V19.3861H13.3358V42.4752Z" fill="#003865"/>
<path d="M12.7007 42.4752H13.1241V19.3861H12.7007V42.4752Z" fill="#003865"/>
<path d="M11.4307 42.4752H11.854V19.3861H11.4307V42.4752Z" fill="#003865"/>
<path d="M10.7956 42.4752H11.219V19.3861H10.7956V42.4752Z" fill="#003865"/>
<path d="M9.31387 42.4752H9.73723V19.3861H9.31387V42.4752Z" fill="#003865"/>
<path d="M8.67883 42.4752H9.10219V19.3861H8.67883V42.4752Z" fill="#003865"/>
<path d="M9.10219 19.604H9.52555V5.0099H9.10219V19.604Z" fill="#003865"/>
<path d="M10.7956 19.604H11.219V5.0099H10.7956V19.604Z" fill="#003865"/>
<path d="M12.4891 19.604H12.9124V5.0099H12.4891V19.604Z" fill="#003865"/>
<path d="M14.1825 19.604H14.6058V5.0099H14.1825V19.604Z" fill="#003865"/>
<path d="M15.8759 19.604H16.2993V5.0099H15.8759V19.604Z" fill="#003865"/>
<path d="M7.40876 19.604H7.83212V5.0099H7.40876V19.604Z" fill="#003865"/>
<path d="M7.19708 42.4752H7.62044V19.3861H7.19708V42.4752Z" fill="#003865"/>
<path d="M6.56204 42.4752H6.9854V19.3861H6.56204V42.4752Z" fill="#003865"/>
<path d="M5.08029 42.4752H5.50365V19.3861H5.08029V42.4752Z" fill="#003865"/>
<path d="M17.5693 42.4752H18.4161V35.505H17.5693V42.4752Z" fill="#003865"/>
<path d="M19.8978 42.4752H20.7445V35.505H19.8978V42.4752Z" fill="#003865"/>
<path d="M22.2263 42.4752H23.073V35.505H22.2263V42.4752Z" fill="#003865"/>
<path d="M30.2701 7.84158H40.0073V7.18812H30.2701V7.84158Z" fill="#003865"/>
<path d="M40.854 27.0099H52.2847V27.6634H40.854V27.0099Z" fill="#003865"/>
<path d="M41.9124 24.8317H52.2847V27.6634H41.9124V24.8317Z" fill="#003865"/>
<path d="M42.9708 28.5347H52.2847V31.3663H42.9708V28.5347Z" fill="#003865"/>
<path d="M40.854 28.9703H52.2847V29.6238H40.854V28.9703Z" fill="#003865"/>
<path d="M42.9708 32.2376H52.2847V35.0693H42.9708V32.2376Z" fill="#003865"/>
<path d="M42.9708 35.9406H52.2847V38.7723H42.9708V35.9406Z" fill="#003865"/>
<path d="M41.9124 21.1287H52.2847V23.9604H41.9124V21.1287Z" fill="#003865"/>
<path d="M41.9124 17.6436H52.2847V20.4752H41.9124V17.6436Z" fill="#003865"/>
<path d="M41.9124 13.9406H52.2847V16.7723H41.9124V13.9406Z" fill="#003865"/>
<path d="M41.9124 10.4554H52.2847V13.2871H41.9124V10.4554Z" fill="#003865"/>
<path d="M41.9124 6.75248H52.2847V9.58416H41.9124V6.75248Z" fill="#003865"/>
<path d="M41.9124 3.26733H52.2847V6.09901H41.9124V3.26733Z" fill="#003865"/>
<path d="M41.9124 0H52.2847V2.83168H41.9124V0Z" fill="#003865"/>
<path d="M42.5474 0H42.9708V40.7327H42.5474V0Z" fill="#003865"/>
<path d="M43.8175 0H44.2409V40.7327H43.8175V0Z" fill="#003865"/>
<path d="M45.0876 0H45.5109V40.7327H45.0876V0Z" fill="#003865"/>
<path d="M46.3577 0H46.781V40.7327H46.3577V0Z" fill="#003865"/>
<path d="M47.6277 0H48.0511V40.7327H47.6277V0Z" fill="#003865"/>
<path d="M48.8978 0H49.3212V40.7327H48.8978V0Z" fill="#003865"/>
<path d="M50.1679 0H50.5912V40.7327H50.1679V0Z" fill="#003865"/>
<path d="M51.438 0H51.8613V40.7327H51.438V0Z" fill="#003865"/>
<path d="M42.7591 27.4455H43.1825V44H42.7591V27.4455Z" fill="#003865"/>
<path d="M51.438 30.9307H54.4015V44H51.438V30.9307Z" fill="#003865"/>
<path d="M51.438 33.5446H56.3066V44H51.438V33.5446Z" fill="#003865"/>
<path d="M53.1314 42.4752H58V44H53.1314V42.4752Z" fill="#003865"/>
<path d="M33.6569 39.8614H53.5547V44H33.6569V39.8614Z" fill="#003865"/>
<path d="M51.438 30.9307H56.3066V31.5842H51.438V30.9307Z" fill="#003865"/>
<path d="M55.6715 30.9307H56.3066V44H55.6715V30.9307Z" fill="#003865"/>
<path d="M80.3 25.86C81.0867 26.0867 81.7267 26.16 82.22 26.08C82.7267 25.9867 83.1733 25.6533 83.56 25.08L84.24 24.08L84.58 23.7L88.94 15H92.8L87 25.82C86.4267 26.8867 85.74 27.7133 84.94 28.3C84.1533 28.8867 83.2867 29.22 82.34 29.3C81.3933 29.38 80.4 29.2067 79.36 28.78L80.3 25.86ZM84.52 26.88L78.12 15H82.3L86.68 24.08L84.52 26.88ZM94.3964 29.24C94.1297 29.24 93.8431 29.22 93.5364 29.18C93.2431 29.14 92.9297 29.08 92.5964 29L92.8164 25.76C93.0031 25.8 93.1831 25.82 93.3564 25.82C93.9031 25.82 94.3164 25.6067 94.5964 25.18C94.8764 24.74 95.0697 24.1267 95.1764 23.34C95.2964 22.5533 95.3697 21.6333 95.3964 20.58L95.5964 15H106.876V29H102.976V17.26L103.836 18.14H98.1764L98.9764 17.22L98.8764 20.42C98.8364 21.78 98.7431 23.0067 98.5964 24.1C98.4497 25.18 98.2164 26.1067 97.8964 26.88C97.5764 27.64 97.1297 28.2267 96.5564 28.64C95.9964 29.04 95.2764 29.24 94.3964 29.24ZM109.871 29V15H113.771V23.22L119.551 15H123.271V29H119.371V20.8L113.611 29H109.871ZM126.277 29V15H130.177V25.86H135.557V15H139.457V29H126.277ZM137.757 31.86V28.12L138.577 29H135.557V25.86H141.377V31.86H137.757ZM141.987 29L148.167 15H152.067L158.267 29H154.147L149.307 16.94H150.867L146.027 29H141.987ZM145.367 26.28L146.387 23.36H153.227L154.247 26.28H145.367ZM165.691 29V15H177.391V18.06H169.591V20.32H173.211C174.918 20.32 176.218 20.68 177.111 21.4C178.018 22.12 178.471 23.16 178.471 24.52C178.471 25.92 177.965 27.02 176.951 27.82C175.938 28.6067 174.518 29 172.691 29H165.691ZM169.591 26.16H172.431C173.085 26.16 173.585 26.0267 173.931 25.76C174.291 25.4933 174.471 25.1133 174.471 24.62C174.471 23.6333 173.791 23.14 172.431 23.14H169.591V26.16ZM184.156 20.42H190.656V23.38H184.156V20.42ZM184.436 25.94H191.756V29H180.516V15H191.496V18.06H184.436V25.94ZM197.112 29V17.26L197.992 18.14H192.812V15H205.292V18.14H200.132L201.012 17.26V29H197.112ZM213.802 29.28C212.682 29.28 211.649 29.1 210.702 28.74C209.755 28.38 208.929 27.8733 208.222 27.22C207.529 26.5533 206.989 25.78 206.602 24.9C206.215 24.02 206.022 23.0533 206.022 22C206.022 20.9467 206.215 19.98 206.602 19.1C206.989 18.22 207.529 17.4533 208.222 16.8C208.929 16.1333 209.755 15.62 210.702 15.26C211.649 14.9 212.682 14.72 213.802 14.72C214.935 14.72 215.969 14.9 216.902 15.26C217.849 15.62 218.669 16.1333 219.362 16.8C220.055 17.4533 220.595 18.22 220.982 19.1C221.382 19.98 221.582 20.9467 221.582 22C221.582 23.0533 221.382 24.0267 220.982 24.92C220.595 25.8 220.055 26.5667 219.362 27.22C218.669 27.8733 217.849 28.38 216.902 28.74C215.969 29.1 214.935 29.28 213.802 29.28ZM213.802 26C214.335 26 214.829 25.9067 215.282 25.72C215.749 25.5333 216.149 25.2667 216.482 24.92C216.829 24.56 217.095 24.1333 217.282 23.64C217.482 23.1467 217.582 22.6 217.582 22C217.582 21.3867 217.482 20.84 217.282 20.36C217.095 19.8667 216.829 19.4467 216.482 19.1C216.149 18.74 215.749 18.4667 215.282 18.28C214.829 18.0933 214.335 18 213.802 18C213.269 18 212.769 18.0933 212.302 18.28C211.849 18.4667 211.449 18.74 211.102 19.1C210.769 19.4467 210.502 19.8667 210.302 20.36C210.115 20.84 210.022 21.3867 210.022 22C210.022 22.6 210.115 23.1467 210.302 23.64C210.502 24.1333 210.769 24.56 211.102 24.92C211.449 25.2667 211.849 25.5333 212.302 25.72C212.769 25.9067 213.269 26 213.802 26ZM233.059 15H237.019V29H233.059V15ZM227.659 29H223.699V15H227.659V29ZM233.339 23.54H227.379V20.26H233.339V23.54ZM249.387 15H253.347V29H249.387V15ZM243.987 29H240.027V15H243.987V29ZM249.667 23.54H243.707V20.26H249.667V23.54ZM254.955 29L261.135 15H265.035L271.235 29H267.115L262.275 16.94H263.835L258.995 29H254.955ZM258.335 26.28L259.355 23.36H266.195L267.215 26.28H258.335ZM279.898 29V24.66L280.838 25.48H277.298C276.045 25.48 274.965 25.2733 274.058 24.86C273.151 24.4467 272.451 23.8533 271.958 23.08C271.478 22.3067 271.238 21.3867 271.238 20.32C271.238 19.2133 271.491 18.2667 271.998 17.48C272.518 16.68 273.245 16.0667 274.178 15.64C275.125 15.2133 276.231 15 277.498 15H283.798V29H279.898ZM271.278 29L274.778 23.94H278.758L275.438 29H271.278ZM279.898 23.4V17.14L280.838 18.12H277.578C276.805 18.12 276.218 18.3 275.818 18.66C275.431 19.0067 275.238 19.54 275.238 20.26C275.238 20.9667 275.431 21.5067 275.818 21.88C276.218 22.24 276.791 22.42 277.538 22.42H280.838L279.898 23.4Z" fill="#003865"/>
</svg>
