<svg width="93" height="70" viewBox="0 0 93 70" fill="none" xmlns="http://www.w3.org/2000/svg">
<path d="M40.3905 0.693069H54.9854V70H40.3905V0.693069Z" fill="white"/>
<path d="M63.4708 42.9703H67.2044V70H63.4708V42.9703Z" fill="white"/>
<path d="M65.5073 49.901H69.2409V70H65.5073V49.901Z" fill="white"/>
<path d="M48.5365 57.1782H69.2409V70H48.5365V57.1782Z" fill="white"/>
<path d="M48.5365 55.4455H69.2409V54.4059H48.5365V55.4455Z" fill="white"/>
<path d="M48.5365 52.6733H69.2409V51.6337H48.5365V52.6733Z" fill="white"/>
<path d="M48.5365 50.2475H69.2409V49.2079H48.5365V50.2475Z" fill="white"/>
<path d="M48.5365 47.1287H64.1496V46.0891H48.5365V47.1287Z" fill="white"/>
<path d="M48.5365 44.703H64.1496V43.6634H48.5365V44.703Z" fill="white"/>
<path d="M48.5365 42.2772H64.1496V41.2376H48.5365V42.2772Z" fill="white"/>
<path d="M48.5365 39.5049H64.1496V38.4653H48.5365V39.5049Z" fill="white"/>
<path d="M48.5365 36.7327H64.1496V35.6931H48.5365V36.7327Z" fill="white"/>
<path d="M48.5365 33.9604H64.1496V32.9208H48.5365V33.9604Z" fill="white"/>
<path d="M25.4562 33.9604H41.0693V32.9208H25.4562V33.9604Z" fill="white"/>
<path d="M25.4562 39.1584H41.0693V38.4653H25.4562V39.1584Z" fill="white"/>
<path d="M8.4854 37.0792H25.4562V36.3861H8.4854V37.0792Z" fill="white"/>
<path d="M12.219 27.3762H25.4562V26.6832H12.219V27.3762Z" fill="white"/>
<path d="M12.219 23.5644H25.4562V22.8713H12.219V23.5644Z" fill="white"/>
<path d="M12.219 20.099H25.4562V19.4059H12.219V20.099Z" fill="white"/>
<path d="M12.219 15.9406H25.4562V15.2475H12.219V15.9406Z" fill="white"/>
<path d="M12.219 12.8218H25.4562V12.1287H12.219V12.8218Z" fill="white"/>
<path d="M12.219 8.66337H25.4562V7.9703H12.219V8.66337Z" fill="white"/>
<path d="M8.4854 42.6238H25.4562V41.9307H8.4854V42.6238Z" fill="white"/>
<path d="M8.4854 48.1683H25.4562V47.4752H8.4854V48.1683Z" fill="white"/>
<path d="M8.4854 53.7129H25.4562V53.0198H8.4854V53.7129Z" fill="white"/>
<path d="M8.4854 59.2574H25.4562V58.5644H8.4854V59.2574Z" fill="white"/>
<path d="M25.4562 62.0297H41.0693V61.3366H25.4562V62.0297Z" fill="white"/>
<path d="M8.14599 31.8812H41.0693V30.8416H8.14599V31.8812Z" fill="white"/>
<path d="M25.4562 55.7921H41.0693V54.7525H25.4562V55.7921Z" fill="white"/>
<path d="M25.4562 49.901H41.0693V44.3564H25.4562V49.901Z" fill="white"/>
<path d="M39.0328 67.5743H41.0693V32.9208H39.0328V67.5743Z" fill="white"/>
<path d="M3.39416 68.9604H26.135V63.4158H3.39416V68.9604Z" fill="white"/>
<path d="M3.39416 64.802H8.14599V55.099H3.39416V64.802Z" fill="white"/>
<path d="M3.39416 47.1287H8.14599V45.7426H3.39416V47.1287Z" fill="white"/>
<path d="M4.75182 55.099H8.14599V52.6733H4.75182V55.099Z" fill="white"/>
<path d="M3.39416 49.901H5.77007V52.6733H3.39416V49.901Z" fill="white"/>
<path d="M3.39416 49.2079H8.14599V50.2475H3.39416V49.2079Z" fill="white"/>
<path d="M6.78832 46.0891H8.14599V50.2475H6.78832V46.0891Z" fill="white"/>
<path d="M3.39416 46.0891H4.75182V50.2475H3.39416V46.0891Z" fill="white"/>
<path d="M25.4562 57.5247H41.0693V56.4851H25.4562V57.5247Z" fill="white"/>
<path d="M0 70H41.0693V66.5347H0V70Z" fill="white"/>
<path d="M48.5365 31.1881H64.1496V30.1485H48.5365V31.1881Z" fill="white"/>
<path d="M48.5365 28.4158H64.1496V27.3762H48.5365V28.4158Z" fill="white"/>
<path d="M48.5365 25.9901H64.1496V24.9505H48.5365V25.9901Z" fill="white"/>
<path d="M48.5365 23.2178H64.1496V22.1782H48.5365V23.2178Z" fill="white"/>
<path d="M48.5365 20.4455H64.1496V19.4059H48.5365V20.4455Z" fill="white"/>
<path d="M48.5365 17.6733H64.1496V16.6337H48.5365V17.6733Z" fill="white"/>
<path d="M48.5365 15.2475H64.1496V14.2079H48.5365V15.2475Z" fill="white"/>
<path d="M62.792 58.9109H64.1496V11.4356H62.792V58.9109Z" fill="white"/>
<path d="M60.0766 58.9109H61.4343V11.4356H60.0766V58.9109Z" fill="white"/>
<path d="M57.3613 58.9109H58.719V11.4356H57.3613V58.9109Z" fill="white"/>
<path d="M54.646 58.9109H56.0037V11.4356H54.646V58.9109Z" fill="white"/>
<path d="M35.6387 55.4455H36.9963V33.6139H35.6387V55.4455Z" fill="white"/>
<path d="M31.9051 55.4455H33.2628V33.6139H31.9051V55.4455Z" fill="white"/>
<path d="M28.1715 55.4455H29.5292V33.6139H28.1715V55.4455Z" fill="white"/>
<path d="M25.4562 67.5743H26.135V30.8416H25.4562V67.5743Z" fill="white"/>
<path d="M23.4197 67.5743H24.0985V30.8416H23.4197V67.5743Z" fill="white"/>
<path d="M21.3832 67.5743H22.062V30.8416H21.3832V67.5743Z" fill="white"/>
<path d="M20.365 67.5743H21.0438V30.8416H20.365V67.5743Z" fill="white"/>
<path d="M18.3285 67.5743H19.0073V30.8416H18.3285V67.5743Z" fill="white"/>
<path d="M17.3102 67.5743H17.9891V30.8416H17.3102V67.5743Z" fill="white"/>
<path d="M14.9343 67.5743H15.6131V30.8416H14.9343V67.5743Z" fill="white"/>
<path d="M13.9161 67.5743H14.5949V30.8416H13.9161V67.5743Z" fill="white"/>
<path d="M14.5949 31.1881H15.2737V7.9703H14.5949V31.1881Z" fill="white"/>
<path d="M17.3102 31.1881H17.9891V7.9703H17.3102V31.1881Z" fill="white"/>
<path d="M20.0255 31.1881H20.7044V7.9703H20.0255V31.1881Z" fill="white"/>
<path d="M22.7409 31.1881H23.4197V7.9703H22.7409V31.1881Z" fill="white"/>
<path d="M25.4562 31.1881H26.135V7.9703H25.4562V31.1881Z" fill="white"/>
<path d="M11.8796 31.1881H12.5584V7.9703H11.8796V31.1881Z" fill="white"/>
<path d="M11.5401 67.5743H12.219V30.8416H11.5401V67.5743Z" fill="white"/>
<path d="M10.5219 67.5743H11.2007V30.8416H10.5219V67.5743Z" fill="white"/>
<path d="M8.14599 67.5743H8.82482V30.8416H8.14599V67.5743Z" fill="white"/>
<path d="M28.1715 67.5743H29.5292V56.4851H28.1715V67.5743Z" fill="white"/>
<path d="M31.9051 67.5743H33.2628V56.4851H31.9051V67.5743Z" fill="white"/>
<path d="M35.6387 67.5743H36.9963V56.4851H35.6387V67.5743Z" fill="white"/>
<path d="M48.5365 12.4752H64.1496V11.4356H48.5365V12.4752Z" fill="white"/>
<path d="M65.5073 42.9703H83.8358V44.0099H65.5073V42.9703Z" fill="white"/>
<path d="M67.2044 39.5049H83.8358V44.0099H67.2044V39.5049Z" fill="white"/>
<path d="M68.9015 45.396H83.8358V49.901H68.9015V45.396Z" fill="white"/>
<path d="M65.5073 46.0891H83.8358V47.1287H65.5073V46.0891Z" fill="white"/>
<path d="M68.9015 51.2871H83.8358V55.7921H68.9015V51.2871Z" fill="white"/>
<path d="M68.9015 57.1782H83.8358V61.6832H68.9015V57.1782Z" fill="white"/>
<path d="M67.2044 33.6139H83.8358V38.1188H67.2044V33.6139Z" fill="white"/>
<path d="M67.2044 28.0693H83.8358V32.5743H67.2044V28.0693Z" fill="white"/>
<path d="M67.2044 22.1782H83.8358V26.6832H67.2044V22.1782Z" fill="white"/>
<path d="M67.2044 16.6337H83.8358V21.1386H67.2044V16.6337Z" fill="white"/>
<path d="M67.2044 10.7426H83.8358V15.2475H67.2044V10.7426Z" fill="white"/>
<path d="M67.2044 5.19802H83.8358V9.70297H67.2044V5.19802Z" fill="white"/>
<path d="M67.2044 0H83.8358V4.50495H67.2044V0Z" fill="white"/>
<path d="M68.2226 0H68.9015V64.802H68.2226V0Z" fill="white"/>
<path d="M70.2591 0H70.938V64.802H70.2591V0Z" fill="white"/>
<path d="M72.2956 0H72.9744V64.802H72.2956V0Z" fill="white"/>
<path d="M74.3321 0H75.0109V64.802H74.3321V0Z" fill="white"/>
<path d="M76.3686 0H77.0474V64.802H76.3686V0Z" fill="white"/>
<path d="M78.4051 0H79.0839V64.802H78.4051V0Z" fill="white"/>
<path d="M80.4416 0H81.1204V64.802H80.4416V0Z" fill="white"/>
<path d="M82.4781 0H83.1569V64.802H82.4781V0Z" fill="white"/>
<path d="M68.562 43.6634H69.2409V70H68.562V43.6634Z" fill="white"/>
<path d="M82.4781 49.2079H87.2299V70H82.4781V49.2079Z" fill="white"/>
<path d="M82.4781 53.3663H90.2847V70H82.4781V53.3663Z" fill="white"/>
<path d="M85.1934 67.5743H93V70H85.1934V67.5743Z" fill="white"/>
<path d="M53.9672 63.4158H85.8723V70H53.9672V63.4158Z" fill="white"/>
<path d="M82.4781 49.2079H90.2847V50.2475H82.4781V49.2079Z" fill="white"/>
<path d="M89.2664 49.2079H90.2847V70H89.2664V49.2079Z" fill="white"/>
</svg>
