<svg width="24" height="24" viewBox="0 0 24 24" fill="none" xmlns="http://www.w3.org/2000/svg">
<path d="M15.152 22.49H14.922C12.3308 22.2081 9.84134 21.3246 7.65205 19.91C5.61823 18.6147 3.89143 16.8913 2.59205 14.86C1.17421 12.665 0.290566 10.1682 0.0120457 7.57C-0.0197943 7.2601 0.0116458 6.94695 0.104476 6.64957C0.197296 6.35219 0.349566 6.07676 0.552046 5.84C0.748986 5.60007 0.992066 5.4021 1.26691 5.25781C1.54174 5.11353 1.84273 5.02586 2.15205 5H4.75205C5.31517 5.00057 5.85952 5.20247 6.28681 5.56924C6.7141 5.93601 6.99615 6.44348 7.08205 7C7.17705 7.71488 7.35485 8.41627 7.61205 9.09C7.76845 9.51338 7.80075 9.97263 7.70515 10.4137C7.60945 10.8548 7.38985 11.2595 7.07205 11.58L6.46205 12.19C7.42245 13.7062 8.71074 14.9877 10.232 15.94L10.842 15.34C11.1625 15.0222 11.5672 14.8026 12.0083 14.7069C12.4494 14.6113 12.9086 14.6436 13.332 14.8C14.0065 15.0548 14.7076 15.2326 15.422 15.33C15.988 15.4151 16.5035 15.7038 16.8718 16.142C17.24 16.5803 17.4357 17.1378 17.422 17.71V20.11C17.422 20.7342 17.1747 21.333 16.7343 21.7753C16.2939 22.2176 15.6962 22.4674 15.072 22.47L15.152 22.49ZM4.75205 6.49H2.36205C2.2447 6.49776 2.13014 6.52923 2.0253 6.58251C1.92045 6.63579 1.8275 6.70978 1.75205 6.8C1.67863 6.88451 1.62305 6.98301 1.58868 7.08956C1.55431 7.19611 1.54185 7.30851 1.55205 7.42C1.79454 9.77678 2.58567 12.044 3.86205 14.04C5.03869 15.8867 6.60537 17.4534 8.45205 18.63C10.4493 19.9198 12.719 20.7278 15.082 20.99C15.2049 20.9969 15.3279 20.9783 15.4432 20.9353C15.5585 20.8922 15.6637 20.8257 15.752 20.74C15.9112 20.5768 16.0009 20.3581 16.002 20.13V17.74C16.0065 17.5296 15.9337 17.3248 15.7973 17.1644C15.6609 17.0041 15.4704 16.8993 15.262 16.87C14.4359 16.7589 13.6244 16.5577 12.842 16.27C12.6879 16.2124 12.5206 16.1996 12.3595 16.2333C12.1984 16.2669 12.0502 16.3455 11.932 16.46L10.932 17.46C10.8149 17.5742 10.664 17.6476 10.5019 17.6692C10.3397 17.6908 10.175 17.6595 10.032 17.58C7.89825 16.3742 6.13202 14.6115 4.92205 12.48C4.83923 12.338 4.80607 12.1724 4.8278 12.0094C4.84953 11.8465 4.92491 11.6954 5.04205 11.58L6.04205 10.58C6.15673 10.464 6.23562 10.3175 6.26931 10.1579C6.303 9.99834 6.29007 9.83243 6.23205 9.68C5.94324 8.89798 5.74202 8.08636 5.63205 7.26C5.60724 7.04527 5.50338 6.84746 5.3407 6.70512C5.17802 6.56277 4.96818 6.48609 4.75205 6.49Z" fill="white"/>
<path d="M17.5483 12.7812C17.2798 13.0729 16.8446 13.0729 16.5761 12.7812L12.2014 8.02812C11.9329 7.73642 11.9329 7.26358 12.2014 6.97188L16.5761 2.21878C16.8446 1.92707 17.2798 1.92707 17.5483 2.21878C17.8168 2.51048 17.8168 2.98332 17.5483 3.27502L14.3471 6.75304L22.3125 6.75304C22.6922 6.75304 23 7.08747 23 7.5C23 7.91253 22.6922 8.24696 22.3125 8.24696H14.3471L17.5483 11.725C17.8168 12.0167 17.8168 12.4895 17.5483 12.7812Z" fill="white"/>
</svg>
