<svg width="50" height="50" viewBox="0 0 50 50" fill="none" xmlns="http://www.w3.org/2000/svg">
<rect width="50" height="50" rx="25" fill="#CFCFCF"/>
<rect width="50" height="50" rx="25" fill="url(#paint0_linear_135_587)"/>
<rect width="50" height="50" rx="25" fill="url(#paint1_linear_135_587)"/>
<path d="M29.8276 11.9655H20.1724C20.0444 11.9655 19.9216 11.9147 19.8311 11.8241C19.7405 11.7336 19.6897 11.6108 19.6897 11.4828C19.6897 11.3547 19.7405 11.2319 19.8311 11.1414C19.9216 11.0509 20.0444 11 20.1724 11H29.8276C29.9556 11 30.0784 11.0509 30.1689 11.1414C30.2595 11.2319 30.3103 11.3547 30.3103 11.4828C30.3103 11.6108 30.2595 11.7336 30.1689 11.8241C30.0784 11.9147 29.9556 11.9655 29.8276 11.9655Z" fill="white"/>
<path d="M12.4483 35.1379H37.5517C37.9358 35.1379 38.3042 34.9853 38.5758 34.7137C38.8474 34.4421 39 34.0738 39 33.6897C39 33.3055 38.8474 32.9372 38.5758 32.6656C38.3042 32.394 37.9358 32.2414 37.5517 32.2414H12.4483C12.0642 32.2414 11.6958 32.394 11.4242 32.6656C11.1526 32.9372 11 33.3055 11 33.6897C11 34.0738 11.1526 34.4421 11.4242 34.7137C11.6958 34.9853 12.0642 35.1379 12.4483 35.1379Z" fill="white"/>
<path d="M37.5517 36.1034H12.4483C12.0642 36.1034 11.6958 36.256 11.4242 36.5276C11.1526 36.7992 11 37.1676 11 37.5517C11 37.9358 11.1526 38.3042 11.4242 38.5758C11.6958 38.8474 12.0642 39 12.4483 39H37.5517C37.9358 39 38.3042 38.8474 38.5758 38.5758C38.8474 38.3042 39 37.9358 39 37.5517C39 37.1676 38.8474 36.7992 38.5758 36.5276C38.3042 36.256 37.9358 36.1034 37.5517 36.1034Z" fill="white"/>
<path d="M17.0345 31.5172C17.098 31.5176 17.161 31.5054 17.2198 31.4814C17.2786 31.4574 17.3321 31.422 17.3772 31.3772L22.4462 26.3083C22.5371 26.2174 22.5882 26.0941 22.5882 25.9655C22.5882 25.837 22.5371 25.7137 22.4462 25.6228C22.3553 25.5319 22.232 25.4808 22.1034 25.4808C21.9749 25.4808 21.8516 25.5319 21.7607 25.6228L16.6917 30.6917C16.6465 30.7366 16.6106 30.79 16.5861 30.8488C16.5615 30.9077 16.5489 30.9708 16.5489 31.0345C16.5489 31.0982 16.5615 31.1613 16.5861 31.2201C16.6106 31.279 16.6465 31.3324 16.6917 31.3772C16.7368 31.422 16.7903 31.4574 16.8491 31.4814C16.908 31.5054 16.9709 31.5176 17.0345 31.5172Z" fill="white"/>
<path d="M27.5538 25.6228C27.5085 25.6676 27.4726 25.721 27.4481 25.7799C27.4236 25.8387 27.411 25.9018 27.411 25.9655C27.411 26.0292 27.4236 26.0923 27.4481 26.1512C27.4726 26.21 27.5085 26.2634 27.5538 26.3083L32.6228 31.3772C32.6676 31.4225 32.721 31.4584 32.7799 31.4829C32.8387 31.5074 32.9018 31.52 32.9655 31.52C33.0292 31.52 33.0923 31.5074 33.1512 31.4829C33.21 31.4584 33.2634 31.4225 33.3083 31.3772C33.3535 31.3324 33.3894 31.279 33.4139 31.2201C33.4385 31.1613 33.4511 31.0982 33.4511 31.0345C33.4511 30.9708 33.4385 30.9077 33.4139 30.8488C33.3894 30.79 33.3535 30.7366 33.3083 30.6917L28.2393 25.6228C28.1944 25.5775 28.141 25.5416 28.0822 25.5171C28.0234 25.4926 27.9603 25.48 27.8966 25.48C27.8328 25.48 27.7697 25.4926 27.7109 25.5171C27.6521 25.5416 27.5987 25.5775 27.5538 25.6228Z" fill="white"/>
<path d="M25 25.9655C25.8316 25.9651 26.6339 25.6581 27.2533 25.1032C27.8727 24.5482 28.2658 23.7844 28.3572 22.9578C28.4487 22.1312 28.2321 21.2999 27.749 20.623C27.2658 19.9461 26.5501 19.4711 25.7386 19.289C25.6628 19.2379 25.5741 19.2095 25.4828 19.2069V18.6807C26.1572 18.5667 26.7695 18.2177 27.2113 17.6955C27.6531 17.1733 27.8959 16.5116 27.8966 15.8276V13.8966C27.8966 13.1283 27.5914 12.3916 27.0482 11.8484C26.505 11.3052 25.7682 11 25 11C24.2318 11 23.495 11.3052 22.9518 11.8484C22.4086 12.3916 22.1034 13.1283 22.1034 13.8966V15.8276C22.1041 16.5116 22.3469 17.1733 22.7887 17.6955C23.2305 18.2177 23.8428 18.5667 24.5172 18.6807V19.2503C24.2949 19.2772 24.0763 19.329 23.8655 19.4048C23.7452 19.4496 23.6475 19.5404 23.5941 19.6572C23.5407 19.774 23.5359 19.9072 23.5807 20.0276C23.6255 20.1479 23.7163 20.2456 23.8331 20.299C23.9499 20.3524 24.0831 20.3572 24.2034 20.3124C24.4585 20.2187 24.7283 20.1713 25 20.1724C25.4774 20.1724 25.9441 20.314 26.341 20.5792C26.738 20.8444 27.0474 21.2214 27.2301 21.6625C27.4127 22.1036 27.4606 22.5889 27.3674 23.0571C27.2743 23.5253 27.0444 23.9554 26.7068 24.293C26.3692 24.6306 25.9391 24.8605 25.4709 24.9536C25.0027 25.0468 24.5173 24.999 24.0763 24.8163C23.6352 24.6336 23.2582 24.3242 22.993 23.9272C22.7278 23.5303 22.5862 23.0636 22.5862 22.5862C22.5862 22.4582 22.5353 22.3354 22.4448 22.2448C22.3543 22.1543 22.2315 22.1034 22.1034 22.1034C21.9754 22.1034 21.8526 22.1543 21.7621 22.2448C21.6716 22.3354 21.6207 22.4582 21.6207 22.5862C21.6207 23.4825 21.9767 24.342 22.6105 24.9757C23.2442 25.6095 24.1038 25.9655 25 25.9655ZM24.0345 14.8621C24.0345 14.6711 24.0911 14.4844 24.1972 14.3257C24.3033 14.1669 24.4541 14.0431 24.6305 13.97C24.8069 13.897 25.0011 13.8778 25.1884 13.9151C25.3757 13.9524 25.5477 14.0443 25.6827 14.1793C25.8178 14.3144 25.9097 14.4864 25.947 14.6737C25.9842 14.861 25.9651 15.0551 25.892 15.2316C25.8189 15.408 25.6952 15.5588 25.5364 15.6649C25.3776 15.771 25.191 15.8276 25 15.8276C24.7439 15.8276 24.4983 15.7259 24.3173 15.5448C24.1362 15.3637 24.0345 15.1181 24.0345 14.8621Z" fill="white"/>
<defs>
<linearGradient id="paint0_linear_135_587" x1="25" y1="0" x2="25" y2="50" gradientUnits="userSpaceOnUse">
<stop stop-color="#5CAC16"/>
<stop offset="1" stop-color="#499407"/>
</linearGradient>
<linearGradient id="paint1_linear_135_587" x1="25" y1="0" x2="25" y2="50" gradientUnits="userSpaceOnUse">
<stop stop-color="#FF4548"/>
<stop offset="1" stop-color="#D21013"/>
</linearGradient>
</defs>
</svg>
