<svg width="50" height="50" viewBox="0 0 50 50" fill="none" xmlns="http://www.w3.org/2000/svg">
<rect width="50" height="50" rx="25" fill="#CFCFCF"/>
<rect width="50" height="50" rx="25" fill="url(#paint0_linear_135_581)"/>
<rect width="50" height="50" rx="25" fill="url(#paint1_linear_135_581)"/>
<path fill-rule="evenodd" clip-rule="evenodd" d="M25.938 13C27.3531 13.0038 28.5098 14.1201 28.7086 15.5711C34.1572 17.286 38.123 22.6501 38.125 29V29.1849C39.2138 29.5992 39.9972 30.6965 40 32.0005C39.9963 33.6568 38.7407 34.996 37.188 35H12.813C11.2599 34.9963 10.0037 33.657 10 32.0005C10.0027 30.6965 10.7861 29.5992 11.875 29.1849V29C11.8769 22.6501 15.8429 17.2861 21.2914 15.5711C21.4903 14.1199 22.6475 13.0035 24.063 13H25.938ZM12.7176 31.0051C12.251 31.0581 11.876 31.4911 11.875 32.0005C11.8763 32.5438 12.3036 32.999 12.813 33H37.188C37.697 32.9987 38.1237 32.5436 38.125 32.0005C38.124 31.4911 37.7489 31.0581 37.2824 31.0051L37.188 31H12.813L12.7176 31.0051ZM24.063 15C23.5534 15.001 23.126 15.457 23.125 16.0005V24.0005C23.1248 24.5523 22.7053 24.9998 22.188 25C21.6703 25 21.2502 24.5525 21.25 24.0005V17.678C16.8784 19.3305 13.7481 23.7815 13.75 29H36.25C36.2518 23.7814 33.1215 19.3305 28.75 17.678V24.0005C28.7498 24.5523 28.3303 24.9998 27.813 25C27.2953 25 26.8752 24.5525 26.875 24.0005V16.0005C26.874 15.4911 26.4989 15.0582 26.0324 15.0051L25.938 15H24.063Z" fill="white"/>
<defs>
<linearGradient id="paint0_linear_135_581" x1="25" y1="0" x2="25" y2="50" gradientUnits="userSpaceOnUse">
<stop stop-color="#5CAC16"/>
<stop offset="1" stop-color="#499407"/>
</linearGradient>
<linearGradient id="paint1_linear_135_581" x1="25" y1="0" x2="25" y2="50" gradientUnits="userSpaceOnUse">
<stop stop-color="#FF4548"/>
<stop offset="1" stop-color="#D21013"/>
</linearGradient>
</defs>
</svg>
