<svg width="30" height="30" viewBox="0 0 30 30" fill="none" xmlns="http://www.w3.org/2000/svg">
<path d="M2.5 27.5L4.2644 21.0864C3.18028 19.2049 2.61095 17.071 2.61374 14.8995C2.60119 8.05686 8.15805 2.5 14.9875 2.5C18.3021 2.5 21.4144 3.78507 23.7578 6.12925C24.9129 7.27832 25.8284 8.6452 26.4514 10.1507C27.0744 11.6561 27.3924 13.2702 27.387 14.8995C27.387 21.729 21.8301 27.2859 15 27.2859C12.921 27.2859 10.8922 26.7689 9.07755 25.774L2.5 27.5ZM9.3678 23.5436L9.74594 23.7702C11.3331 24.7095 13.1432 25.2055 14.9875 25.2067C20.658 25.2067 25.2829 20.5827 25.2829 14.9114C25.2829 12.1647 24.212 9.56942 22.271 7.62925C21.3166 6.66941 20.1816 5.90795 18.9316 5.38876C17.6815 4.86956 16.341 4.6029 14.9875 4.60414C9.30429 4.60487 4.68095 9.22895 4.68095 14.9002C4.68095 16.8405 5.22304 18.7437 6.25628 20.3819L6.49556 20.7725L5.44977 24.5775L9.3678 23.5436Z" fill="#2766C6"/>
<path fill-rule="evenodd" clip-rule="evenodd" d="M11.9002 9.70836C11.6735 9.19137 11.4216 9.17881 11.2074 9.17881C11.0184 9.16626 10.816 9.16626 10.6018 9.16626C10.4009 9.16626 10.0605 9.2416 9.77096 9.55695C9.48071 9.87157 8.6875 10.6153 8.6875 12.1397C8.6875 13.6648 9.79607 15.139 9.94747 15.3406C10.0981 15.5422 12.0893 18.7675 15.2399 20.0156C17.8603 21.0488 18.3899 20.8472 18.957 20.7837C19.5235 20.721 20.7843 20.0407 21.0487 19.3096C21.3005 18.5917 21.3005 17.9617 21.2252 17.8353C21.1498 17.7098 20.9349 17.6337 20.6329 17.4698C20.3175 17.3191 18.8057 16.5628 18.5162 16.4617C18.2259 16.3612 18.0243 16.311 17.8227 16.6131C17.621 16.9285 17.0287 17.6212 16.8404 17.8228C16.6632 18.0245 16.4748 18.0496 16.172 17.8982C15.8574 17.7475 14.8618 17.4196 13.6772 16.3612C12.7569 15.5415 12.1395 14.5215 11.9504 14.2195C11.7746 13.9041 11.9253 13.7401 12.0893 13.5887C12.2281 13.4506 12.4046 13.2238 12.556 13.0473C12.7067 12.8701 12.7569 12.732 12.8707 12.5303C12.9712 12.3287 12.9209 12.1397 12.8455 11.989C12.7695 11.8502 12.1779 10.3258 11.9002 9.70836Z" fill="#2766C6"/>
</svg>
