<svg width="30" height="31" viewBox="0 0 30 31" fill="none" xmlns="http://www.w3.org/2000/svg">
<path d="M2.5 28L4.2644 21.5864C3.18028 19.7049 2.61095 17.571 2.61374 15.3995C2.60119 8.55686 8.15805 3 14.9875 3C18.3021 3 21.4144 4.28507 23.7578 6.62925C24.9129 7.77832 25.8284 9.1452 26.4514 10.6507C27.0744 12.1561 27.3924 13.7702 27.387 15.3995C27.387 22.229 21.8301 27.7859 15 27.7859C12.921 27.7859 10.8922 27.2689 9.07755 26.274L2.5 28ZM9.3678 24.0436L9.74594 24.2702C11.3331 25.2095 13.1432 25.7055 14.9875 25.7067C20.658 25.7067 25.2829 21.0827 25.2829 15.4114C25.2829 12.6647 24.212 10.0694 22.271 8.12925C21.3166 7.16941 20.1816 6.40795 18.9316 5.88876C17.6815 5.36956 16.341 5.1029 14.9875 5.10414C9.30429 5.10487 4.68095 9.72895 4.68095 15.4002C4.68095 17.3405 5.22304 19.2437 6.25628 20.8819L6.49556 21.2725L5.44977 25.0775L9.3678 24.0436Z" fill="white"/>
<path fill-rule="evenodd" clip-rule="evenodd" d="M11.9002 10.2083C11.6735 9.69129 11.4216 9.67873 11.2074 9.67873C11.0184 9.66618 10.816 9.66618 10.6018 9.66618C10.4009 9.66618 10.0605 9.74151 9.77096 10.0569C9.48071 10.3715 8.6875 11.1152 8.6875 12.6396C8.6875 14.1648 9.79607 15.6389 9.94747 15.8405C10.0981 16.0421 12.0893 19.2674 15.2399 20.5155C17.8603 21.5487 18.3899 21.3471 18.957 21.2836C19.5235 21.2209 20.7843 20.5406 21.0487 19.8095C21.3005 19.0916 21.3005 18.4616 21.2252 18.3353C21.1498 18.2098 20.9349 18.1336 20.6329 17.9698C20.3175 17.819 18.8057 17.0628 18.5162 16.9616C18.2259 16.8611 18.0243 16.8109 17.8227 17.113C17.621 17.4284 17.0287 18.1211 16.8404 18.3228C16.6632 18.5244 16.4748 18.5495 16.172 18.3981C15.8574 18.2474 14.8618 17.9195 13.6772 16.8611C12.7569 16.0414 12.1395 15.0214 11.9504 14.7194C11.7746 14.404 11.9253 14.24 12.0893 14.0886C12.2281 13.9505 12.4046 13.7238 12.556 13.5473C12.7067 13.37 12.7569 13.2319 12.8707 13.0303C12.9712 12.8287 12.9209 12.6396 12.8455 12.4889C12.7695 12.3501 12.1779 10.8257 11.9002 10.2083Z" fill="white"/>
</svg>
