<svg width="53" height="136" viewBox="0 0 53 136" fill="none" xmlns="http://www.w3.org/2000/svg">
<path d="M52.3174 27.2883C49.4362 27.991 46.7722 29.2479 44.3262 31.0627C40.4632 34.0243 37.3725 38.7242 35.0547 45.1623C32.8656 51.6007 31.7705 59.9067 31.7705 70.0793C31.7705 80.252 32.8656 88.5579 35.0547 94.9963C37.3725 101.434 40.4632 106.134 44.3262 109.096C46.4085 110.641 49.2984 118.037 52.3174 124.76V136.004C41.7256 135.417 32.0935 134.235 28.2939 131.888C19.5378 126.351 12.6489 118.367 7.62695 107.937C2.60509 97.5066 0.09375 84.8875 0.09375 70.0793C0.0937509 55.2711 2.60509 42.652 7.62695 32.2219C12.6488 21.7918 19.5379 13.8723 28.2939 8.46408C35.5137 3.89865 43.5219 1.21831 52.3174 0.417206V27.2883Z" fill="#003865"/>
</svg>
