<svg width="68" height="176" viewBox="0 0 68 176" fill="none" xmlns="http://www.w3.org/2000/svg">
<path d="M67.9961 35.1143C64.2681 36.024 60.8213 37.6517 57.6562 40C52.6563 43.8333 48.6562 49.9167 45.6562 58.25C42.8229 66.5833 41.4062 77.3333 41.4062 90.5C41.4062 103.667 42.8229 114.417 45.6562 122.75C48.6562 131.083 52.6563 137.167 57.6562 141C60.3504 142.999 64.0899 152.566 67.9961 161.265V175.827C54.2884 175.067 41.8237 173.537 36.9062 170.5C25.5729 163.333 16.6562 153 10.1562 139.5C3.65625 126 0.406251 109.667 0.40625 90.5C0.40625 71.3333 3.65625 55 10.1562 41.5C16.6562 28 25.5729 17.75 36.9062 10.75C46.2499 4.84153 56.6134 1.37227 67.9961 0.334961V35.1143Z" fill="#003865"/>
</svg>
