<svg width="40" height="103" viewBox="0 0 40 103" fill="none" xmlns="http://www.w3.org/2000/svg">
<path d="M39.2705 20.3967C37.1041 20.925 35.1009 21.8701 33.2617 23.2346C30.3575 25.4613 28.0336 28.9948 26.291 33.8352C24.6453 38.6756 23.8233 44.9199 23.8232 52.5676C23.8232 60.2156 24.6452 66.4605 26.291 71.301C28.0336 76.1414 30.3575 79.675 33.2617 81.9016C34.8268 83.0629 37.0015 88.6191 39.2705 93.6721V102.131C31.3072 101.69 24.0656 100.801 21.209 99.0364C14.626 94.8736 9.44647 88.8711 5.6709 81.0295C1.89543 73.188 0.0078125 63.7006 0.0078125 52.5676C0.00783747 41.4346 1.89534 31.9473 5.6709 24.1057C9.44648 16.2641 14.6259 10.3104 21.209 6.24438C26.6371 2.81193 32.6577 0.796809 39.2705 0.19458V20.3967Z" fill="#003865"/>
</svg>
