<svg width="160" height="45" fill="none" xmlns="http://www.w3.org/2000/svg"><path fill-rule="evenodd" clip-rule="evenodd" d="m19.061 35 30.408 2.344V45H0v-8.438L19.061 35Zm1.588 8.41h27.233v-4.594l-27.233-2.1v6.694ZM104.449 26.537c.9 0 1.72.143 2.461.43a5.708 5.708 0 0 1 1.952 1.224c.55.519.979 1.128 1.285 1.828.318.7.477 1.468.477 2.305 0 .837-.159 1.61-.477 2.32a5.546 5.546 0 0 1-1.285 1.829c-.55.52-1.201.922-1.952 1.208-.741.286-1.561.43-2.461.43a6.853 6.853 0 0 1-2.46-.43 6.018 6.018 0 0 1-1.968-1.208 5.733 5.733 0 0 1-1.286-1.844 5.674 5.674 0 0 1-.46-2.305c0-.837.153-1.606.46-2.305.307-.7.736-1.309 1.286-1.828a5.884 5.884 0 0 1 1.968-1.224 6.855 6.855 0 0 1 2.46-.43Zm0 2.607c-.423 0-.82.075-1.19.223-.36.148-.677.366-.953.652a3.13 3.13 0 0 0-.635 1.001 3.584 3.584 0 0 0-.222 1.304c0 .477.074.911.222 1.303.159.392.371.732.635 1.018a2.9 2.9 0 0 0 .953.636c.37.148.767.222 1.19.222.423 0 .815-.074 1.175-.222.37-.149.688-.36.952-.636.275-.286.487-.626.635-1.018a3.44 3.44 0 0 0 .238-1.303c0-.488-.079-.922-.238-1.304a2.794 2.794 0 0 0-.635-1.001 2.588 2.588 0 0 0-.952-.652 3.054 3.054 0 0 0-1.175-.223ZM75.553 26.76v2.432h-6.19v1.796h2.873l.25.004c1.232.033 2.18.319 2.845.855.72.572 1.08 1.399 1.08 2.48 0 1.113-.403 1.987-1.207 2.623-.804.625-1.931.938-3.381.938h-5.555V26.76h9.285Zm-6.19 8.87h2.254c.518 0 .915-.106 1.19-.318.286-.211.429-.514.429-.906 0-.76-.507-1.151-1.52-1.175l-.1-.001h-2.253v2.4Z" fill="#003865"/><path d="M86.747 29.192h-5.604v1.876h4.937v2.353h-4.937v2.035h5.81v2.432h-8.92V26.76h8.714v2.432ZM97.695 26.76v2.496H94.3v8.632h-3.096v-8.632h-3.412V26.76h9.904ZM115.447 30.94h4.285v-4.18h3.143v11.128h-3.143v-4.34h-4.285v4.34h-3.143V26.76h3.143v4.18ZM128.405 26.76v4.18h4.286v-4.18h3.142v11.128h-3.142v-4.34h-4.286v4.34h-3.143V26.76h3.143Z" fill="#003865"/><path fill-rule="evenodd" clip-rule="evenodd" d="M150.03 37.888h-3.27l-.866-2.162h-4.712l-.866 2.162h-3.206l4.904-11.128h3.095l4.921 11.128Zm-7.918-4.483h2.852l-1.426-3.558-1.426 3.558ZM160 37.888h-3.095V35.09h-1.707l-1.833 2.798h-3.301l2.257-3.269-.051-.022c-.719-.328-1.275-.8-1.667-1.415-.381-.614-.571-1.346-.571-2.194 0-.88.201-1.631.603-2.257.413-.636.99-1.123 1.73-1.462.752-.34 1.63-.51 2.635-.51h5v11.129Zm-4.936-8.648c-.614 0-1.08.143-1.397.43-.307.275-.46.699-.46 1.27 0 .563.153.992.46 1.288.317.286.772.43 1.365.43h1.873V29.24h-1.841ZM29.046 18.182l20.423 7.5v7.5l-20.423-4.286v.007L0 32.273V24.92l29.046-6.74Zm1.587 9.423 17.249 3.62v-4.433l-17.249-6.334v7.147Z" fill="#003865"/><path fill-rule="evenodd" clip-rule="evenodd" d="M49.47 14.587v7.686L35.4 11.86v.02L0 20.456v-7.22L35.4 0l14.07 14.587Zm-12.483-3.528 10.895 8.062V15.23L36.987 3.934v7.125Z" fill="#003865"/><path d="M106.486 7.419v8.632h4.27V7.419h3.095v8.632h1.524v4.769h-2.873v-2.273h-9.111V7.419h3.095ZM68.49 7.419l2.584 5.366 2.686-5.366h3.063l-4.603 8.6c-.455.848-1 1.505-1.635 1.971a3.947 3.947 0 0 1-2.064.795c-.75.064-1.54-.074-2.365-.413l.747-2.321c.624.18 1.132.238 1.523.175.4-.074.753-.337 1.06-.79L65.171 7.42h3.318ZM87.994 18.547H84.9V9.914h-3.197l-.057 1.813a28.481 28.481 0 0 1-.222 2.925c-.116.858-.302 1.595-.555 2.21-.254.603-.61 1.07-1.064 1.398-.445.318-1.016.477-1.714.477-.212 0-.44-.016-.683-.047a7.639 7.639 0 0 1-.746-.143l.175-2.576c.148.032.29.048.428.048.434 0 .762-.17.985-.509.222-.35.375-.837.46-1.463.095-.625.153-1.356.174-2.193l.16-4.435h8.951v11.128ZM93.466 13.952l4.587-6.533h2.952v11.128H97.91v-6.518l-4.571 6.518H90.37V7.419h3.095v6.533Z" fill="#003865"/><path fill-rule="evenodd" clip-rule="evenodd" d="M128.779 18.547h-3.27l-.866-2.163h-4.712l-.866 2.163h-3.206l4.904-11.128h3.095l4.921 11.128Zm-7.918-4.484h2.852l-1.426-3.557-1.426 3.557Z" fill="#003865"/></svg>